<svg width="107" height="150" viewBox="0 0 107 150" fill="none" xmlns="http://www.w3.org/2000/svg">
<g clip-path="url(#clip0_317_3329)">
<path d="M106.186 29.4041L96.5295 137.587L53.1209 149.621L9.83201 137.604L0.185059 29.4041H106.186Z" fill="#E44D26"/>
<path d="M53.1855 140.422L88.2619 130.698L96.5139 38.2507H53.1855V140.422Z" fill="#F16529"/>
<path d="M34.4128 64.7917H53.1856V51.5215H19.9102L20.2276 55.0816L23.4894 91.6508H53.1856V78.3806H35.6257L34.4128 64.7917ZM37.4036 98.2862H24.0823L25.9413 119.122L53.1246 126.668L53.1856 126.652V112.845L53.1275 112.86L38.3485 108.87L37.4036 98.2862Z" fill="#EBEBEB"/>
<path d="M10.0469 0H16.7906V6.66274H22.9598V0H29.7039V20.1765H22.9602V13.4202H16.7911V20.1765H10.0473V0H10.0469ZM38.5718 6.691H32.6358V0H51.2566V6.691H45.3168V20.1765H38.5731V6.691H38.5726H38.5718ZM54.2117 0H61.2434L65.5689 7.08947L69.8902 0H76.9249V20.1765H70.2085V10.1759L65.5689 17.3497H65.4525L60.81 10.1759V20.1765H54.2117V0ZM80.2809 0H87.0268V13.5075H96.5104V20.1765H80.2805V0H80.2809Z" fill="black"/>
<path d="M53.1401 91.6508H69.4809L67.9402 108.861L53.1396 112.856V126.662L80.3445 119.122L80.5439 116.88L83.6628 81.9441L83.9865 78.3806H53.1401V91.6508ZM53.1401 64.7593V64.7917H85.1939L85.4599 61.8092L86.0649 55.0816L86.3819 51.5215H53.1401V64.7597V64.7593Z" fill="white"/>
</g>
<defs>
<clipPath id="clip0_317_3329">
<rect width="106.371" height="150" fill="white"/>
</clipPath>
</defs>
</svg>
