<svg width="18" height="18" viewBox="0 0 18 18" fill="none" xmlns="http://www.w3.org/2000/svg">
<mask id="mask0_127_415" style="mask-type:alpha" maskUnits="userSpaceOnUse" x="0" y="0" width="18" height="18">
<rect width="18" height="18" fill="#D9D9D9"/>
</mask>
<g mask="url(#mask0_127_415)">
<path d="M3 12.75C2.5875 12.75 2.2345 12.6033 1.941 12.3097C1.647 12.0157 1.5 11.6625 1.5 11.25V5.3625C1.5 5.175 1.55325 4.9905 1.65975 4.809C1.76575 4.628 1.9125 4.4875 2.1 4.3875L7.875 1.5L13.5375 4.3875C13.6875 4.4625 13.8155 4.58125 13.9215 4.74375C14.028 4.90625 14.1 5.075 14.1375 5.25H11.9438L7.875 3.1875L3 5.60625V12.75ZM5.25 15.75C4.8375 15.75 4.4845 15.6033 4.191 15.3097C3.897 15.0157 3.75 14.6625 3.75 14.25V7.5C3.75 7.0875 3.897 6.73425 4.191 6.44025C4.4845 6.14675 4.8375 6 5.25 6H15C15.4125 6 15.7657 6.14675 16.0597 6.44025C16.3533 6.73425 16.5 7.0875 16.5 7.5V14.25C16.5 14.6625 16.3533 15.0157 16.0597 15.3097C15.7657 15.6033 15.4125 15.75 15 15.75H5.25ZM10.125 11.5125L5.25 9V14.25H15V9L10.125 11.5125ZM10.125 10.0125L15 7.5H5.25L10.125 10.0125Z" fill="black"/>
</g>
</svg>
