<svg width="44" height="44" viewBox="0 0 44 44" fill="none" xmlns="http://www.w3.org/2000/svg">
<rect width="44" height="44" rx="22" fill="#FFF4F4"/>
<mask id="mask0_18_1508" style="mask-type:alpha" maskUnits="userSpaceOnUse" x="10" y="10" width="24" height="24">
<rect x="10" y="10" width="24" height="24" fill="#D9D9D9"/>
</mask>
<g mask="url(#mask0_18_1508)">
<path d="M10.95 23.3C10.65 22.7 10.4167 22.0917 10.25 21.475C10.0833 20.8583 10 20.2333 10 19.6C10 17.7333 10.6333 16.1667 11.9 14.9C13.1667 13.6333 14.7333 13 16.6 13C17.65 13 18.65 13.2207 19.6 13.662C20.55 14.104 21.35 14.7167 22 15.5C22.65 14.7167 23.45 14.104 24.4 13.662C25.35 13.2207 26.35 13 27.4 13C29.2667 13 30.8333 13.6333 32.1 14.9C33.3667 16.1667 34 17.7333 34 19.6C34 20.2333 33.9167 20.8583 33.75 21.475C33.5833 22.0917 33.35 22.7 33.05 23.3C32.8667 22.9833 32.65 22.7 32.4 22.45C32.15 22.2 31.8583 22 31.525 21.85C31.675 21.4667 31.7917 21.0917 31.875 20.725C31.9583 20.3583 32 19.9833 32 19.6C32 18.3 31.5583 17.2083 30.675 16.325C29.7917 15.4417 28.7 15 27.4 15C26.05 15 25.0127 15.3707 24.288 16.112C23.5627 16.854 22.8 17.6833 22 18.6C21.2 17.6667 20.4377 16.8333 19.713 16.1C18.9877 15.3667 17.95 15 16.6 15C15.3 15 14.2083 15.4417 13.325 16.325C12.4417 17.2083 12 18.3 12 19.6C12 19.9833 12.0417 20.3583 12.125 20.725C12.2083 21.0917 12.325 21.4667 12.475 21.85C12.1417 22 11.85 22.2 11.6 22.45C11.35 22.7 11.1333 22.9833 10.95 23.3ZM10 32V30.425C10 29.6917 10.371 29.1043 11.113 28.663C11.8543 28.221 12.8167 28 14 28C14.2167 28 14.425 28.004 14.625 28.012C14.825 28.0207 15.0167 28.0417 15.2 28.075C14.9667 28.4083 14.7917 28.7667 14.675 29.15C14.5583 29.5333 14.5 29.9417 14.5 30.375V32H10ZM16 32V30.375C16 29.2917 16.5543 28.4167 17.663 27.75C18.771 27.0833 20.2167 26.75 22 26.75C23.8 26.75 25.25 27.0833 26.35 27.75C27.45 28.4167 28 29.2917 28 30.375V32H16ZM29.5 32V30.375C29.5 29.9417 29.4457 29.5333 29.337 29.15C29.229 28.7667 29.0667 28.4083 28.85 28.075C29.0333 28.0417 29.221 28.0207 29.413 28.012C29.6043 28.004 29.8 28 30 28C31.2 28 32.1667 28.221 32.9 28.663C33.6333 29.1043 34 29.6917 34 30.425V32H29.5ZM22 28.75C21.05 28.75 20.2 28.875 19.45 29.125C18.7 29.375 18.2583 29.6667 18.125 30H25.9C25.75 29.6667 25.304 29.375 24.562 29.125C23.8207 28.875 22.9667 28.75 22 28.75ZM14 27C13.45 27 12.9793 26.8043 12.588 26.413C12.196 26.021 12 25.55 12 25C12 24.4333 12.196 23.9583 12.588 23.575C12.9793 23.1917 13.45 23 14 23C14.5667 23 15.0417 23.1917 15.425 23.575C15.8083 23.9583 16 24.4333 16 25C16 25.55 15.8083 26.021 15.425 26.413C15.0417 26.8043 14.5667 27 14 27ZM30 27C29.45 27 28.979 26.8043 28.587 26.413C28.1957 26.021 28 25.55 28 25C28 24.4333 28.1957 23.9583 28.587 23.575C28.979 23.1917 29.45 23 30 23C30.5667 23 31.0417 23.1917 31.425 23.575C31.8083 23.9583 32 24.4333 32 25C32 25.55 31.8083 26.021 31.425 26.413C31.0417 26.8043 30.5667 27 30 27ZM22 26C21.1667 26 20.4583 25.7083 19.875 25.125C19.2917 24.5417 19 23.8333 19 23C19 22.15 19.2917 21.4377 19.875 20.863C20.4583 20.2877 21.1667 20 22 20C22.85 20 23.5623 20.2877 24.137 20.863C24.7123 21.4377 25 22.15 25 23C25 23.8333 24.7123 24.5417 24.137 25.125C23.5623 25.7083 22.85 26 22 26ZM22 22C21.7167 22 21.4793 22.0957 21.288 22.287C21.096 22.479 21 22.7167 21 23C21 23.2833 21.096 23.5207 21.288 23.712C21.4793 23.904 21.7167 24 22 24C22.2833 24 22.521 23.904 22.713 23.712C22.9043 23.5207 23 23.2833 23 23C23 22.7167 22.9043 22.479 22.713 22.287C22.521 22.0957 22.2833 22 22 22Z" fill="black"/>
</g>
</svg>
