<svg width="142" height="150" viewBox="0 0 142 150" fill="none" xmlns="http://www.w3.org/2000/svg">
<g clip-path="url(#clip0_317_3318)">
<path d="M70.5732 0.000244141L0 24.8363L11.1517 117.3L70.648 150L130.451 116.857L141.599 24.3968L70.5732 0.000244141Z" fill="#B3B3B3"/>
<path d="M134.56 29.7401L70.4082 7.86404V142.187L124.171 112.434L134.56 29.7401Z" fill="#AF2B2D"/>
<path d="M7.91943 30.1353L17.4755 112.828L70.4079 142.187V7.86142L7.91943 30.1353Z" fill="#DF2E31"/>
<path d="M85.2785 74.674L70.5255 43.8653L57.5378 74.674H85.2785ZM90.9034 87.6285H51.7965L43.0478 109.511L26.7739 109.812L70.409 12.7415L115.565 109.812H100.482L90.9034 87.6285Z" fill="#F2F2F2"/>
<path d="M70.4082 12.7418L70.5247 43.8656L85.2624 74.698H70.4414L70.4082 87.6087L90.902 87.6287L100.481 109.816L116.052 110.105L70.4082 12.7418Z" fill="#B3B3B3"/>
</g>
<defs>
<clipPath id="clip0_317_3318">
<rect width="141.599" height="150" fill="white"/>
</clipPath>
</defs>
</svg>
