<svg width="106" height="120" viewBox="0 0 106 120" fill="none" xmlns="http://www.w3.org/2000/svg">
<path d="M52.7511 119.797L9.61329 107.822L0 0H105.631L96.0083 107.805L52.7511 119.797Z" fill="#264DE4"/>
<path d="M87.7696 100.941L95.9929 8.81592H52.8157V110.631L87.7696 100.941Z" fill="#2965F1"/>
<path d="M22.038 48.8055L23.2231 62.0294H52.8157V48.8055H22.038ZM19.6563 22.04L20.8584 35.264H52.8157V22.04H19.6563ZM52.8157 83.1494L52.7577 83.1648L38.0304 79.1881L37.0888 68.6415H23.8139L25.6665 89.4051L52.7548 96.9245L52.8157 96.9079V83.1494Z" fill="#EBEBEB"/>
<path d="M83.5089 48.8055L85.896 22.04H52.7701V35.264H71.4038L70.2005 48.8055H52.7701V62.0294H69.054L67.5186 79.1798L52.7697 83.1606V96.9183L79.8796 89.4051L80.0784 87.1708L83.1863 52.3565L83.5089 48.8055Z" fill="white"/>
</svg>
