<svg width="110" height="49" viewBox="0 0 110 49" fill="none" xmlns="http://www.w3.org/2000/svg">
<g clip-path="url(#clip0_350_295)">
<path d="M18.5229 11.2407V19.5952H11.499V11.2407H0V48.0819H11.499V27.0262H18.5229V48.0819H30.0225V11.2407H18.5229Z" fill="white"/>
<path d="M80.1875 11.2407V48.0819H82.027V48.1244H107.499V48.0819H109.999V21.3323H93.6171V27.6796H99.6481V37.575H90.5435V11.2407H80.1875Z" fill="white"/>
<path d="M108.881 0.0203497C96.4098 0.0203497 83.9383 0.0368932 71.4668 -0.000329671C71.0699 -0.0407824 70.6709 0.0530199 70.3316 0.266593C69.9922 0.480166 69.7312 0.80163 69.5891 1.18135C64.9652 10.1952 60.3173 19.1956 55.6451 28.1827C55.4515 28.5573 55.2392 28.9236 54.9736 29.414C54.7069 28.9189 54.5172 28.5803 54.3404 28.2359C49.681 19.1621 45.0266 10.0849 40.3773 1.0041C40.2733 0.723259 40.081 0.485396 39.8304 0.327634C39.5798 0.169872 39.2849 0.101088 38.9919 0.132018C26.377 0.161954 13.7622 0.167665 1.14764 0.149153H0V10.7068C0.372301 10.7252 0.686032 10.7547 0.999763 10.7541C11.285 10.7263 21.5703 10.7074 31.855 10.6442C32.1975 10.6031 32.5438 10.6777 32.8406 10.8566C33.1374 11.0355 33.3683 11.3088 33.4979 11.6345C38.7217 21.6858 43.9872 31.7141 49.2099 41.7672C49.3264 42.0627 49.5353 42.3109 49.8042 42.4732C50.0731 42.6356 50.387 42.7031 50.6974 42.6653C53.6358 42.6251 56.5747 42.6316 59.512 42.6594C59.7721 42.6923 60.0357 42.6371 60.262 42.5022C60.4882 42.3673 60.6646 42.1603 60.764 41.9132C65.8355 31.8654 70.9147 21.8211 76.0017 11.7804C76.1353 11.3995 76.3897 11.0749 76.7248 10.858C77.0599 10.641 77.4564 10.5442 77.8516 10.5828C88.1369 10.6312 98.4227 10.6123 108.708 10.6123H109.999V0.0752977C109.585 0.0540275 109.233 0.0203497 108.881 0.0203497" fill="white"/>
<path d="M41.471 32.6019C40.074 29.7729 38.6126 26.9765 37.1738 24.1688L31.8317 13.7375L31.6265 13.8025C31.6015 13.9392 31.585 14.0774 31.5771 14.2161C31.5899 25.1935 31.5994 36.1709 31.6056 47.1483C31.6056 47.9495 31.9031 48.1238 32.6175 48.1155C35.3732 48.083 38.1307 48.0635 40.8858 48.1244C41.8195 48.1451 42.0109 47.7988 42.0033 46.9291C41.9656 42.808 42.008 38.6869 41.9639 34.5664C41.9437 33.883 41.7756 33.2126 41.4716 32.603" fill="white"/>
<path d="M68.6075 33.1048C68.4314 33.4985 68.3457 33.9279 68.357 34.3604C68.339 38.5961 68.3448 42.8318 68.3495 47.0675C68.3495 47.3819 68.3964 47.6968 68.4237 48.043H78.6341V13.6733C78.5195 13.8042 78.4132 13.9423 78.3157 14.0869C75.0737 20.4211 71.8378 26.7584 68.6081 33.0989" fill="white"/>
</g>
<defs>
<clipPath id="clip0_350_295">
<rect width="110" height="48.125" fill="white"/>
</clipPath>
</defs>
</svg>
