<svg width="258" height="258" viewBox="0 0 258 258" fill="none" xmlns="http://www.w3.org/2000/svg">
<g opacity="0.3" filter="url(#filter0_f_277_1298)">
<rect x="6.5" y="6.5" width="245" height="245" rx="2.5" stroke="white" stroke-width="5"/>
</g>
<g opacity="0.3" filter="url(#filter1_f_277_1298)">
<rect x="31.5" y="31.5" width="195" height="195" rx="2.5" stroke="white" stroke-width="5"/>
</g>
<g opacity="0.3" filter="url(#filter2_f_277_1298)">
<rect x="56.5" y="56.5" width="145" height="145" rx="2.5" stroke="white" stroke-width="5"/>
</g>
<rect x="79" y="79" width="100" height="100" rx="10" fill="white"/>
<path d="M142 127.268C143.333 128.038 143.333 129.962 142 130.732L124 141.124C122.667 141.894 121 140.932 121 139.392L121 118.608C121 117.068 122.667 116.106 124 116.876L142 127.268Z" fill="#354739"/>
<defs>
<filter id="filter0_f_277_1298" x="0" y="0" width="258" height="258" filterUnits="userSpaceOnUse" color-interpolation-filters="sRGB">
<feFlood flood-opacity="0" result="BackgroundImageFix"/>
<feBlend mode="normal" in="SourceGraphic" in2="BackgroundImageFix" result="shape"/>
<feGaussianBlur stdDeviation="2" result="effect1_foregroundBlur_277_1298"/>
</filter>
<filter id="filter1_f_277_1298" x="25" y="25" width="208" height="208" filterUnits="userSpaceOnUse" color-interpolation-filters="sRGB">
<feFlood flood-opacity="0" result="BackgroundImageFix"/>
<feBlend mode="normal" in="SourceGraphic" in2="BackgroundImageFix" result="shape"/>
<feGaussianBlur stdDeviation="2" result="effect1_foregroundBlur_277_1298"/>
</filter>
<filter id="filter2_f_277_1298" x="50" y="50" width="158" height="158" filterUnits="userSpaceOnUse" color-interpolation-filters="sRGB">
<feFlood flood-opacity="0" result="BackgroundImageFix"/>
<feBlend mode="normal" in="SourceGraphic" in2="BackgroundImageFix" result="shape"/>
<feGaussianBlur stdDeviation="2" result="effect1_foregroundBlur_277_1298"/>
</filter>
</defs>
</svg>
