<svg width="150" height="150" viewBox="0 0 150 150" fill="none" xmlns="http://www.w3.org/2000/svg">
<path d="M150 0H0V150H150V0Z" fill="#1976D2"/>
<path d="M97.21 83H53V93.88H68.8567V143H81.42V93.88H97.21V83Z" fill="white"/>
<path d="M136.223 96.6134C136.223 96.6134 130.267 92.64 123.533 92.64C116.8 92.64 114.377 95.84 114.377 99.26C114.377 108.087 138.98 107.203 138.98 124.967C138.98 152.33 101.467 140.193 101.467 140.193V127.067C101.467 127.067 108.64 132.473 117.243 132.473C125.847 132.473 125.52 126.847 125.52 126.073C125.52 117.91 101.137 117.91 101.137 99.8134C101.137 75.21 136.663 84.9167 136.663 84.9167L136.223 96.6134Z" fill="white"/>
</svg>
