<svg width="107" height="121" viewBox="0 0 107 121" fill="none" xmlns="http://www.w3.org/2000/svg">
<path d="M106.001 0L96.3445 108.183L52.9359 120.217L9.64695 108.199L0 0H106.001Z" fill="#E44D26"/>
<path d="M53.0006 111.018L88.0769 101.294L96.329 8.84668H53.0006V111.018Z" fill="#F16529"/>
<path d="M34.2276 35.3874H53.0005V22.1172H19.725L20.0424 25.6773L23.3042 62.2465H53.0005V48.9763H35.4405L34.2276 35.3874ZM37.2185 68.8819H23.8971L25.7561 89.7182L52.9394 97.2639L53.0005 97.2473V83.4406L52.9423 83.456L38.1633 79.4654L37.2185 68.8819Z" fill="#EBEBEB"/>
<path d="M52.955 62.2465H69.2959L67.7551 79.4571L52.9546 83.4518V97.2576L80.1594 89.7182L80.3589 87.4761L83.4777 52.5398L83.8014 48.9763H52.955V62.2465ZM52.955 35.355V35.3874H85.0089L85.2748 32.4049L85.8798 25.6773L86.1968 22.1172H52.955V35.3554V35.355Z" fill="white"/>
</svg>
