<?xml version="1.0" encoding="utf-8"?>
<!-- Generator: Adobe Illustrator 24.0.1, SVG Export Plug-In . SVG Version: 6.00 Build 0)  -->
<svg version="1.1" id="Camada_1" xmlns="http://www.w3.org/2000/svg" xmlns:xlink="http://www.w3.org/1999/xlink" x="0px" y="0px"
	 viewBox="0 0 2834.65 2834.65" style="enable-background:new 0 0 2834.65 2834.65;" xml:space="preserve">
<style type="text/css">
	.st0{fill:#FFFFFF;}
</style>
<g>
	<g>
		<path class="st0" d="M723.11,1257.4c-38.2,0-76.4,0-114.58,0c0-49.49,0-98.99,0-148.55c-63.18,0-125.03,0-187.58,0
			c0,219.05,0,436.54,0,655.06c62.63,0,124.08,0,187.58,0c0-125.2,0-249.82,0-374.38c38.21,0,76.4,0,114.58,0
			c0,124.77,0,249.42,0,374.38c62.63,0,124.08,0,187.58,0c0-219.21,0-436.66,0-655.06c-63.18,0-125.03,0-187.58,0
			C723.11,1158.45,723.11,1207.94,723.11,1257.4z"/>
		<path class="st0" d="M2226.11,1288.28c-36.38,0-72.76,0-109.21,0c0,37.69,0,74.66,0,112.86c36.5,0,72.87,0,109.21,0
			c0,58.71,0,117.33,0,175.94c-55.01,0-109.96,0-164.92,0c0-156.25,0-312.01,0-468.24c-63.18,0-125.03,0-187.58,0
			c0,219.05,0,436.54,0,655.06c11.15,0,22.23,0,33.33,0c0,0.25,0,0.5,0,0.76c154.42,0,307.61,0,461.46,0c0-0.25,0-0.5,0-0.76
			c15.01,0,30.09,0,45.29,0c0-159.16,0-317.05,0-475.63l0,0C2350.51,1288.28,2288.66,1288.28,2226.11,1288.28z"/>
		<path class="st0" d="M2393.42,909.34c-225.93,0-451.86,0.29-677.79-0.36c-17.67-0.05-26.11,5.9-34.01,21.02
			c-83.76,160.27-168.27,320.15-252.6,480.12c-3.51,6.66-7.31,13.17-12.16,21.9c-4.83-8.81-8.27-14.82-11.48-20.95
			c-84.41-161.36-168.91-322.68-252.97-484.23c-5.78-11.11-11.89-15.54-25.09-15.51c-228.53,0.5-457.05,0.33-685.58,0.3
			c-6.88,0-13.76,0-20.78,0c0,63.97,0,125.35,0,187.72c6.75,0.33,12.43,0.86,18.11,0.84c186.32-0.49,372.65-0.83,558.97-1.95
			c15.05-0.09,22.74,4.36,29.76,17.61c94.63,178.71,190.03,357.03,284.63,535.76c6.48,12.23,13.64,16.15,26.94,15.97
			c53.23-0.72,106.47-0.6,159.7-0.1c11.06,0.1,17.41-3.02,22.68-13.27c91.87-178.66,184.31-357.02,276.04-535.75
			c7.62-14.85,15.49-21.38,33.51-21.3c186.32,0.86,372.65,0.53,558.98,0.53c7.59,0,15.17,0,23.4,0c0-63.84,0-125.13,0-187.37
			C2406.18,909.94,2399.8,909.34,2393.42,909.34z"/>
		<path class="st0" d="M1172.23,1488.66c-25.31-50.3-51.79-100.02-77.84-149.95c-32.26-61.82-64.52-123.65-96.78-185.47
			c-1.24,0.38-2.48,0.77-3.72,1.16c-0.31,2.45-0.9,4.9-0.89,7.36c0.23,195.18,0.63,390.36,0.51,585.55
			c-0.01,14.24,5.39,17.34,18.33,17.19c49.92-0.57,99.87-0.92,149.78,0.16c16.91,0.37,20.38-5.79,20.24-21.25
			c-0.68-73.27,0.09-146.55-0.71-219.82C1181.02,1511.85,1177.53,1499.2,1172.23,1488.66z"/>
		<path class="st0" d="M1663.82,1497.54c-3.37,6.51-4.51,14.83-4.54,22.32c-0.32,75.31-0.23,150.63-0.14,225.94
			c0.01,5.59,0.85,11.18,1.34,17.35c62.22,0,122.92,0,184.97,0c0-203.38,0-405.61,0-611.06c-3.46,4.4-4.91,5.75-5.77,7.4
			C1780.95,1272.12,1722.18,1384.72,1663.82,1497.54z"/>
	</g>
</g>
</svg>
