<svg width="106" height="150" viewBox="0 0 106 150" fill="none" xmlns="http://www.w3.org/2000/svg">
<g clip-path="url(#clip0_317_3345)">
<path d="M52.9352 149.099L9.79737 137.123L0.184082 29.3015H105.816L96.1923 137.107L52.9352 149.099Z" fill="#264DE4"/>
<path d="M87.9539 130.242L96.1772 38.1174H53V139.933L87.9539 130.242Z" fill="#2965F1"/>
<path d="M22.2225 78.1072L23.4076 91.3311H53.0002V78.1072H22.2225ZM19.8408 51.3418L21.0428 64.5657H53.0002V51.3418H19.8408ZM53.0002 112.451L52.9422 112.467L38.2148 108.49L37.2733 97.9433H23.9984L25.8509 118.707L52.9393 126.226L53.0002 126.21V112.451Z" fill="#EBEBEB"/>
<path d="M25.0439 0H41.0599V6.69788H31.7418V13.3958H41.0607V20.0932H25.0439V0ZM44.2635 0H60.2798V5.8242H50.9614V6.98896H60.2798V20.3847H44.2639V14.2686H53.5824V13.1038H44.2631V0H44.2635ZM63.4834 0H79.4998V5.8242H70.1813V6.98896H79.4998V20.3847H63.4834V14.2686H72.8019V13.1038H63.4839V0H63.4834Z" fill="black"/>
<path d="M83.6933 78.1072L86.0803 51.3418H52.9545V64.5657H71.5882L70.3849 78.1072H52.9545V91.3311H69.2383L67.703 108.482L52.9541 112.462V126.22L80.064 118.707L80.2628 116.473L83.3707 81.6582L83.6933 78.1072Z" fill="white"/>
</g>
<defs>
<clipPath id="clip0_317_3345">
<rect width="106" height="149.477" fill="white"/>
</clipPath>
</defs>
</svg>
