<svg xmlns="http://www.w3.org/2000/svg" width="110" height="49" fill="none" style=""><rect id="backgroundrect" width="100%" height="100%" x="0" y="0" fill="none" stroke="none"/>
 <defs>
  <clipPath id="clip0_350_295">
   <rect id="svg_1" fill="white" height="48.125" width="110"/>
  </clipPath>
 </defs>
 <g style="" class="currentLayer">
  <title>Layer 1</title>
  <g id="svg_2" clip-path="url(#clip0_350_295)" class="" fill-opacity="1" fill="#587b52">
   <path id="svg_3" fill="#587b52" d="m18.5229,11.2407l0,8.3545l-7.0239,0l0,-8.3545l-11.499,0l0,36.8412l11.499,0l0,-21.0557l7.0239,0l0,21.0557l11.4996,0l0,-36.8412l-11.4996,0z"/>
   <path id="svg_4" fill="#587b52" d="m80.1875,11.2407l0,36.8412l1.8395,0l0,0.0425l25.472,0l0,-0.0425l2.5,0l0,-26.7496l-16.3819,0l0,6.3473l6.031,0l0,9.8954l-9.1046,0l0,-26.3343l-10.356,0z"/>
   <path id="svg_5" fill="#587b52" d="m108.881,0.02035c-12.4712,0 -24.9427,0.01654 -37.4142,-0.02068c-0.3969,-0.04045 -0.7959,0.05335 -1.1352,0.26692c-0.3394,0.21358 -0.6004,0.53504 -0.7425,0.91476c-4.6239,9.01385 -9.2718,18.01425 -13.944,27.00135c-0.1936,0.3746 -0.4059,0.7409 -0.6715,1.2313c-0.2667,-0.4951 -0.4564,-0.8337 -0.6332,-1.1781c-4.6594,-9.0738 -9.3138,-18.151 -13.9631,-27.2318c-0.104,-0.28084 -0.2963,-0.5187 -0.5469,-0.67647c-0.2506,-0.15776 -0.5455,-0.22654 -0.8385,-0.19561c-12.6149,0.02993 -25.2297,0.03565 -37.84426,0.01713l-1.14764,0l0,10.55765c0.3723,0.0184 0.68603,0.0479 0.99976,0.0473c10.28524,-0.0278 20.57054,-0.0467 30.85524,-0.1099c0.3425,-0.0411 0.6888,0.0335 0.9856,0.2124c0.2968,0.1789 0.5277,0.4522 0.6573,0.7779c5.2238,10.0513 10.4893,20.0796 15.712,30.1327c0.1165,0.2955 0.3254,0.5437 0.5943,0.706c0.2689,0.1624 0.5828,0.2299 0.8932,0.1921c2.9384,-0.0402 5.8773,-0.0337 8.8146,-0.0059c0.2601,0.0329 0.5237,-0.0223 0.75,-0.1572c0.2262,-0.1349 0.4026,-0.3419 0.502,-0.589c5.0715,-10.0478 10.1507,-20.0921 15.2377,-30.1328c0.1336,-0.3809 0.388,-0.7055 0.7231,-0.9224c0.3351,-0.217 0.7316,-0.3138 1.1268,-0.2752c10.2853,0.0484 20.5711,0.0295 30.8564,0.0295l1.291,0l0,-10.537c-0.414,-0.02127 -0.766,-0.05495 -1.118,-0.05495"/>
   <path id="svg_6" fill="#587b52" d="m41.471,32.6019c-1.397,-2.829 -2.8584,-5.6254 -4.2972,-8.4331l-5.3421,-10.4313l-0.2052,0.065c-0.025,0.1367 -0.0415,0.2749 -0.0494,0.4136c0.0128,10.9774 0.0223,21.9548 0.0285,32.9322c0,0.8012 0.2975,0.9755 1.0119,0.9672c2.7557,-0.0325 5.5132,-0.052 8.2683,0.0089c0.9337,0.0207 1.1251,-0.3256 1.1175,-1.1953c-0.0377,-4.1211 0.0047,-8.2422 -0.0394,-12.3627c-0.0202,-0.6834 -0.1883,-1.3538 -0.4923,-1.9634"/>
   <path id="svg_7" fill="#587b52" d="m68.6075,33.1048c-0.1761,0.3937 -0.2618,0.8231 -0.2505,1.2556c-0.018,4.2357 -0.0122,8.4714 -0.0075,12.7071c0,0.3144 0.0469,0.6293 0.0742,0.9755l10.2104,0l0,-34.3697c-0.1146,0.1309 -0.2209,0.269 -0.3184,0.4136c-3.242,6.3342 -6.4779,12.6715 -9.7076,19.012"/>
  </g>
 </g>
</svg>