<svg xmlns="http://www.w3.org/2000/svg" width="80" height="35" fill="none"><rect id="backgroundrect" width="100%" height="100%" x="0" y="0" fill="none" stroke="none"/>

<defs>
<clipPath id="clip0_372_367">
<rect width="80" height="35" fill="white" id="svg_1"/>
</clipPath>
</defs>
<g class="currentLayer" style=""><title>Layer 1</title><g clip-path="url(#clip0_372_367)" id="svg_2" class="" fill="#000000" fill-opacity="1">
<path d="M13.4712 8.17529V14.2513H8.36292V8.17529H0V34.9689H8.36292V19.6556H13.4712V34.9689H21.8345V8.17529H13.4712Z" fill="#000000" id="svg_3" fill-opacity="1"/>
<path d="M58.3184 8.17529V34.9689H59.6562V34.9998H78.1816V34.9689H79.9998V15.5146H68.0853V20.1309H72.4715V27.3275H65.85V8.17529H58.3184Z" fill="#000000" id="svg_4" fill-opacity="1"/>
<path d="M79.1864 0.0148885C70.1162 0.0148885 61.0461 0.0269202 51.9759 -0.000150983C51.6872 -0.0295711 51.397 0.0386487 51.1502 0.193975C50.9034 0.3493 50.7136 0.583093 50.6102 0.859251C47.2475 7.41477 43.8671 13.9605 40.4692 20.4966C40.3283 20.769 40.174 21.0354 39.9808 21.3921C39.7868 21.032 39.6489 20.7858 39.5203 20.5353C36.1316 13.9362 32.7466 7.33456 29.3653 0.730341C29.2897 0.526096 29.1498 0.353104 28.9676 0.238368C28.7853 0.123632 28.5709 0.0736072 28.3578 0.096102C19.1832 0.117874 10.0089 0.122027 0.834647 0.108563H0V7.78689C0.270765 7.80021 0.498932 7.82169 0.7271 7.82126C8.20729 7.80107 15.6875 7.78732 23.1673 7.74134C23.4163 7.71143 23.6682 7.7657 23.8841 7.89581C24.0999 8.02593 24.2679 8.22468 24.3621 8.46152C28.1612 15.7716 31.9907 23.0649 35.789 30.3763C35.8738 30.5912 36.0257 30.7716 36.2212 30.8897C36.4168 31.0078 36.6451 31.0569 36.8708 31.0294C39.0078 31.0002 41.1453 31.0049 43.2814 31.0251C43.4706 31.049 43.6623 31.0089 43.8269 30.9108C43.9914 30.8127 44.1197 30.6622 44.192 30.4824C47.8804 23.1749 51.5743 15.87 55.274 8.56765C55.3711 8.29064 55.5562 8.05456 55.7999 7.89679C56.0436 7.73903 56.3319 7.6686 56.6193 7.69665C64.0995 7.73189 71.5801 7.71814 79.0603 7.71814H79.9996V0.0548507C79.6984 0.0393815 79.4424 0.0148885 79.186 0.0148885" fill="#000000" id="svg_5" fill-opacity="1"/>
<path d="M30.1608 23.7107C29.1448 21.6533 28.082 19.6195 27.0357 17.5776L23.1505 9.99121L23.0012 10.0385C22.983 10.1379 22.971 10.2383 22.9653 10.3393C22.9746 18.3228 22.9815 26.3064 22.986 34.2899C22.986 34.8726 23.2024 34.9994 23.722 34.9934C25.7261 34.9697 27.7316 34.9555 29.7353 34.9998C30.4143 35.0148 30.5535 34.763 30.548 34.1305C30.5206 31.1334 30.5514 28.1362 30.5193 25.1395C30.5046 24.6424 30.3824 24.1549 30.1613 23.7116" fill="#000000" id="svg_6" fill-opacity="1"/>
<path d="M49.8962 24.0763C49.7681 24.3626 49.7058 24.6749 49.714 24.9895C49.7009 28.07 49.7052 31.1505 49.7085 34.231C49.7085 34.4596 49.7427 34.6887 49.7625 34.9405H57.1883V9.94434C57.1049 10.0395 57.0276 10.14 56.9567 10.2451C54.5988 14.8518 52.2455 19.4608 49.8966 24.072" fill="#000000" id="svg_7" fill-opacity="1"/>
</g></g></svg>