<svg width="44" height="44" viewBox="0 0 44 44" fill="none" xmlns="http://www.w3.org/2000/svg">
<rect width="44" height="44" rx="22" fill="#FFF5EA"/>
<mask id="mask0_132_782" style="mask-type:alpha" maskUnits="userSpaceOnUse" x="10" y="10" width="24" height="24">
<rect x="10" y="10" width="24" height="24" fill="#D9D9D9"/>
</mask>
<g mask="url(#mask0_132_782)">
<path d="M15 31C14.45 31 13.979 30.8043 13.587 30.413C13.1957 30.021 13 29.55 13 29V15C13 14.45 13.1957 13.979 13.587 13.587C13.979 13.1957 14.45 13 15 13H19.2C19.4333 12.4 19.8 11.9167 20.3 11.55C20.8 11.1833 21.3667 11 22 11C22.6333 11 23.2 11.1833 23.7 11.55C24.2 11.9167 24.5667 12.4 24.8 13H29C29.55 13 30.021 13.1957 30.413 13.587C30.8043 13.979 31 14.45 31 15V29C31 29.55 30.8043 30.021 30.413 30.413C30.021 30.8043 29.55 31 29 31H15ZM22 14.25C22.2167 14.25 22.396 14.179 22.538 14.037C22.6793 13.8957 22.75 13.7167 22.75 13.5C22.75 13.2833 22.6793 13.104 22.538 12.962C22.396 12.8207 22.2167 12.75 22 12.75C21.7833 12.75 21.6043 12.8207 21.463 12.962C21.321 13.104 21.25 13.2833 21.25 13.5C21.25 13.7167 21.321 13.8957 21.463 14.037C21.6043 14.179 21.7833 14.25 22 14.25ZM15 27.85C15.9 26.9667 16.946 26.2707 18.138 25.762C19.3293 25.254 20.6167 25 22 25C23.3833 25 24.671 25.254 25.863 25.762C27.0543 26.2707 28.1 26.9667 29 27.85V15H15V27.85ZM22 23C22.9667 23 23.7917 22.6583 24.475 21.975C25.1583 21.2917 25.5 20.4667 25.5 19.5C25.5 18.5333 25.1583 17.7083 24.475 17.025C23.7917 16.3417 22.9667 16 22 16C21.0333 16 20.2083 16.3417 19.525 17.025C18.8417 17.7083 18.5 18.5333 18.5 19.5C18.5 20.4667 18.8417 21.2917 19.525 21.975C20.2083 22.6583 21.0333 23 22 23ZM17 29H27V28.75C26.3 28.1667 25.525 27.7293 24.675 27.438C23.825 27.146 22.9333 27 22 27C21.0667 27 20.175 27.146 19.325 27.438C18.475 27.7293 17.7 28.1667 17 28.75V29ZM22 21C21.5833 21 21.2293 20.854 20.938 20.562C20.646 20.2707 20.5 19.9167 20.5 19.5C20.5 19.0833 20.646 18.7293 20.938 18.438C21.2293 18.146 21.5833 18 22 18C22.4167 18 22.7707 18.146 23.062 18.438C23.354 18.7293 23.5 19.0833 23.5 19.5C23.5 19.9167 23.354 20.2707 23.062 20.562C22.7707 20.854 22.4167 21 22 21Z" fill="black"/>
</g>
</svg>
